<?xml version="1.0" encoding="utf-8"?>
<!-- Generator: Adobe Illustrator 18.1.0, SVG Export Plug-In . SVG Version: 6.00 Build 0)  -->
<!DOCTYPE svg PUBLIC "-//W3C//DTD SVG 1.1//EN" "http://www.w3.org/Graphics/SVG/1.1/DTD/svg11.dtd">
<svg version="1.1" id="Layer_1" xmlns="http://www.w3.org/2000/svg" xmlns:xlink="http://www.w3.org/1999/xlink" x="0px" y="0px"
	 viewBox="-87 89 24 24" enable-background="new -87 89 24 24" xml:space="preserve">
<path fill="none" d="M-87,89h24v24h-24V89z"/>
<g id="Power_icon">
	<path d="M-77,110.5c0,0.4,0.4,0.5,0.8,0.5h1.6c0.5,0,1.1-0.2,1.1-0.5v-3.4c-0.6,0.1-1.1,0.2-1.7,0.2s-1.2-0.1-1.7-0.2L-77,110.5
		L-77,110.5z"/>
	<path d="M-70.1,91.8c0-0.5-0.4-0.8-0.8-0.8h-1.1c-0.5,0-0.8,0.4-0.8,0.8v5.4h2.8L-70.1,91.8z"/>
	<path d="M-77.7,91.8c0-0.5-0.4-0.8-0.8-0.8h-1.1c-0.5,0-0.8,0.4-0.8,0.8v5.4h2.8V91.8z"/>
	<path d="M-83.5,98.6c0.3,3.3,2.6,6.1,5.7,7c0.2,0.1,0.5,0.1,0.7,0.2c0.5,0.1,1.1,0.2,1.6,0.2c0.6,0,1.2-0.1,1.8-0.2
		c0.2-0.1,0.5-0.1,0.7-0.2c3-1,5.2-3.7,5.5-6.9h-2.7h-2.8h-4.8h-2.8H-83.5z"/>
</g>
</svg>
